<svg width="48" height="48" viewBox="0 0 48 48" fill="none" xmlns="http://www.w3.org/2000/svg">
<path fill-rule="evenodd" clip-rule="evenodd" d="M39 24C39 22.0302 38.612 20.0796 37.8582 18.2597C37.1044 16.4399 35.9995 14.7863 34.6066 13.3934C33.2137 12.0005 31.5601 10.8956 29.7403 10.1418C27.9204 9.38799 25.9698 9 24 9C22.0302 9 20.0796 9.38799 18.2597 10.1418C16.4399 10.8956 14.7863 12.0005 13.3934 13.3934C12.0005 14.7863 10.8956 16.4399 10.1418 18.2597C9.38798 20.0796 9 22.0302 9 24L0 24C-2.75533e-07 20.8483 0.62078 17.7274 1.82689 14.8156C3.033 11.9038 4.80083 9.25804 7.02944 7.02944C9.25804 4.80083 11.9038 3.033 14.8156 1.82689C17.7274 0.620776 20.8483 -1.44102e-06 24 -1.71655e-06C27.1517 -1.99208e-06 30.2726 0.620779 33.1844 1.82689C36.0962 3.033 38.742 4.80083 40.9706 7.02944C43.1992 9.25804 44.967 11.9038 46.1731 14.8156C47.3792 17.7274 48 20.8483 48 24L39 24Z" fill="#121316"/>
</svg>
